<svg xmlns="http://www.w3.org/2000/svg" viewBox="0 0 32 32"><path fill="#38004d" d="M17,32H15a3,3,0,0,1-3-3,1,1,0,0,0-.64-.9Q11,28,10.7,27.86A1,1,0,0,0,9.61,28a3,3,0,0,1-4.19,0L4,26.58a3,3,0,0,1,0-4.19,1,1,0,0,0,.18-1.09Q4,21,3.87,20.64A1,1,0,0,0,3,20a3,3,0,0,1-3-3V15a3,3,0,0,1,3-3,1,1,0,0,0,.9-.64Q4,11,4.14,10.7A1,1,0,0,0,4,9.61,3,3,0,0,1,4,5.42L5.42,4A3,3,0,0,1,9.61,4a1,1,0,0,0,1.09.18l.66-.27A1,1,0,0,0,12,3a3,3,0,0,1,3-3H17a3,3,0,0,1,3,3,1,1,0,0,0,.64.9l.66.27A1,1,0,0,0,22.39,4a3,3,0,0,1,4.19,0L28,5.42a3,3,0,0,1,0,4.19,1,1,0,0,0-.18,1.09q.15.33.27.66A1,1,0,0,0,29,12a3,3,0,0,1,3,3V17a3,3,0,0,1-3,3,1,1,0,0,0-.9.64q-.12.33-.27.66A1,1,0,0,0,28,22.39a3,3,0,0,1,0,4.19L26.58,28a1,1,0,0,1-1.41,0,1,1,0,0,1,0-1.41l1.46-1.46a1,1,0,0,0,0-1.37,3,3,0,0,1-.6-3.32c.09-.18.16-.37.24-.56A3,3,0,0,1,29,18a1,1,0,0,0,1-1V15a1,1,0,0,0-1-1,3,3,0,0,1-2.77-1.92,5.48,5.48,0,0,0-.23-.56,3,3,0,0,1,.6-3.32,1,1,0,0,0,0-1.37L25.17,5.37a1,1,0,0,0-1.37,0,3,3,0,0,1-3.32.6c-.18-.09-.37-.16-.56-.24A3,3,0,0,1,18,3a1,1,0,0,0-1-1H15a1,1,0,0,0-1,1,3,3,0,0,1-1.92,2.77,5.48,5.48,0,0,0-.56.23,3,3,0,0,1-3.32-.6,1,1,0,0,0-1.37,0L5.37,6.83a1,1,0,0,0,0,1.37A3,3,0,0,1,6,11.52c-.09.18-.16.37-.24.56A3,3,0,0,1,3,14a1,1,0,0,0-1,1V17a1,1,0,0,0,1,1,3,3,0,0,1,2.77,1.92,5.48,5.48,0,0,0,.23.56,3,3,0,0,1-.6,3.32,1,1,0,0,0,0,1.37l1.46,1.46a1,1,0,0,0,1.37,0,3,3,0,0,1,3.32-.6c.18.09.37.16.56.24A3,3,0,0,1,14,29a1,1,0,0,0,1,1H17a1,1,0,0,0,1-1,3,3,0,0,1,1.92-2.77,5.48,5.48,0,0,0,.56-.23,1,1,0,1,1,.82,1.83q-.33.15-.66.27A1,1,0,0,0,20,29,3,3,0,0,1,17,32Z"/><path fill="#9f85ec" d="M11 20a1 1 0 01-.71-.29l-3-3a1 1 0 010-1.42l3-3a1 1 0 011.42 1.42L9.41 16l2.3 2.29A1 1 0 0111 20zM21 20a1 1 0 01-.71-1.71L22.59 16l-2.3-2.29a1 1 0 011.42-1.42l3 3a1 1 0 010 1.42l-3 3A1 1 0 0121 20zM15 22a1 1 0 01-1-1.2l2-10a1 1 0 012 .4l-2 10A1 1 0 0115 22z"/></svg>