<svg xmlns="http://www.w3.org/2000/svg" viewBox="0 0 32 32"><path fill="#38004d" d="M29,12H21a3,3,0,0,0-3,3v1H3V3A1,1,0,0,1,4,2H24a1,1,0,0,1,1,1V9a1,1,0,0,0,2,0V3a3,3,0,0,0-3-3H4A3,3,0,0,0,1,3V16a1,1,0,0,0-1,1v2a3,3,0,0,0,3,3H18v7a3,3,0,0,0,3,3h8a3,3,0,0,0,3-3V15A3,3,0,0,0,29,12ZM3,20a1,1,0,0,1-1-1V18H18v2Zm27,9a1,1,0,0,1-1,1H21a1,1,0,0,1-1-1V15a1,1,0,0,1,1-1h8a1,1,0,0,1,1,1Z"/><path fill="#38004d" d="M25,28a1,1,0,1,1,1-1A1,1,0,0,1,25,28Z"/><path fill="#9f85ec" d="M18 6a.94.94 0 00-.55-.84C17.14 5 17.2 5 15 5a1 1 0 00-.35 1.94L11.93 9.66A1 1 0 0010 10c0 2.21 0 2.18.08 2.38a1 1 0 00.48.5c.3.16.24.12 2.44.12a1 1 0 00.35-1.94l2.72-2.72A1 1 0 0018 8C18 5.24 18 6.19 18 6zM28 19a.94.94 0 00-.55-.84C27.14 18 27.2 18 25 18a1 1 0 00-.35 1.94l-.72.72A1 1 0 0022 21c0 2.19 0 2.13.08 2.38A1 1 0 0023 24h2a1 1 0 00.34-1.93l.73-.73A1 1 0 0028 21C28 18.24 28 19.19 28 19z"/></svg>